<?xml version="1.0" encoding="UTF-8"?>
<svg id="Export_Logo" xmlns="http://www.w3.org/2000/svg" version="1.1" viewBox="0 0 1096.99 767.42">
  <!-- Generator: Adobe Illustrator 29.2.0, SVG Export Plug-In . SVG Version: 2.1.0 Build 108)  -->
  <defs>
    <style>
      .st0 {
        fill: #f6f1e9;
      }

      .st1 {
        fill: #3d587a;
      }

      .st2 {
        fill: #231f20;
      }

      .st3 {
        fill: #1c3455;
      }

      .st4 {
        fill: #7996ba;
      }
    </style>
  </defs>
  <g>
    <polygon class="st3" points="525.72 420.11 533.53 456.35 541.88 443.68 558.05 438.26 525.72 420.11"/>
    <path class="st1" d="M508.97,499.68c-57.4,0-104.09-46.7-104.09-104.09s46.69-104.09,104.09-104.09,104.09,46.69,104.09,104.09h-11.99c0-50.79-41.32-92.1-92.1-92.1s-92.1,41.32-92.1,92.1,41.32,92.1,92.1,92.1v11.99Z"/>
    <path class="st4" d="M508.97,499.68v-11.99c50.79,0,92.1-41.32,92.1-92.1h11.99c0,57.4-46.69,104.09-104.09,104.09Z"/>
  </g>
  <g>
    <path class="st3" d="M116.65,344.32c8.11-15.25,19.36-26.92,33.76-35.03,14.4-8.11,30.91-12.16,49.55-12.16,24.68,0,44.95,6.17,60.8,18.51,15.85,12.34,25.71,28.92,29.58,49.73h-17.06c-3.15-16.94-11.32-30.25-24.5-39.93-13.19-9.68-29.47-14.52-48.82-14.52-14.52,0-27.71,3.21-39.57,9.62-11.86,6.41-21.36,16.22-28.5,29.4-7.14,13.19-10.71,29.22-10.71,48.1s3.57,35.21,10.71,48.28c7.14,13.07,16.64,22.87,28.5,29.4,11.85,6.53,25.05,9.8,39.57,9.8,19.36,0,35.63-4.84,48.82-14.52,13.19-9.68,21.35-22.99,24.5-39.93h17.06c-3.87,20.57-13.79,37.15-29.77,49.73-15.97,12.59-36.18,18.88-60.62,18.88-18.64,0-35.15-4.11-49.55-12.34-14.4-8.22-25.65-20.02-33.76-35.39-8.11-15.37-12.16-33.33-12.16-53.91s4.05-38.48,12.16-53.72Z"/>
    <path class="st3" d="M356.41,228.16v268.62h-16.33V228.16h16.33Z"/>
  </g>
  <path class="st3" d="M918.18,299.67l-62.07,197.11h-15.61l-62.8-174.6-63.16,174.6h-15.61l-62.07-197.11h17.06l53,178.6,63.16-178.6h15.61l62.8,177.87,53-177.87h16.7Z"/>
  <g>
    <rect class="st2" x="906.07" y="437.82" width="130.66" height="58.96"/>
    <g>
      <path class="st0" d="M923.33,478.25c0-1.8,1.22-3.06,2.92-3.06s2.87,1.26,2.87,3.06-1.12,3.06-2.92,3.06c-1.7,0-2.87-1.31-2.87-3.06Z"/>
      <path class="st0" d="M939.57,450.48v6.76h6.13v3.26h-6.13v12.69c0,2.92.83,4.57,3.21,4.57,1.12,0,1.95-.15,2.48-.29l.19,3.21c-.83.34-2.14.58-3.79.58-1.99,0-3.6-.63-4.62-1.8-1.22-1.26-1.65-3.36-1.65-6.13v-12.84h-3.65v-3.26h3.65v-5.64l4.18-1.12Z"/>
      <path class="st0" d="M952.61,469.79c.1,5.79,3.79,8.17,8.07,8.17,3.06,0,4.91-.54,6.52-1.22l.73,3.06c-1.51.68-4.09,1.46-7.83,1.46-7.25,0-11.58-4.77-11.58-11.87s4.18-12.69,11.04-12.69c7.68,0,9.73,6.76,9.73,11.09,0,.88-.1,1.56-.15,1.99h-16.54ZM965.16,466.73c.05-2.72-1.12-6.96-5.93-6.96-4.33,0-6.23,3.99-6.57,6.96h12.5Z"/>
      <path class="st0" d="M991.37,479.91c-1.12.58-3.6,1.36-6.76,1.36-7.1,0-11.72-4.82-11.72-12.01s4.96-12.5,12.65-12.5c2.53,0,4.77.63,5.93,1.22l-.97,3.31c-1.02-.58-2.63-1.12-4.96-1.12-5.4,0-8.32,3.99-8.32,8.9,0,5.45,3.5,8.8,8.17,8.8,2.43,0,4.04-.63,5.25-1.17l.73,3.21Z"/>
      <path class="st0" d="M996.37,446.25h4.28v14.69h.1c.68-1.22,1.75-2.29,3.06-3.02,1.26-.73,2.77-1.22,4.38-1.22,3.16,0,8.22,1.95,8.22,10.07v14.01h-4.28v-13.52c0-3.79-1.41-7-5.45-7-2.77,0-4.96,1.95-5.74,4.28-.24.58-.29,1.22-.29,2.04v14.2h-4.28v-34.53Z"/>
    </g>
  </g>
</svg>