<svg xmlns="http://www.w3.org/2000/svg" fill="none" viewBox="0 0 113 32">
  <path d="M4.35 25c0-7.954 6.446-14.4 14.4-14.4 7.954 0 14.4 6.446 14.4 14.4h3.6c0-9.941-8.059-18-18-18s-18 8.059-18 18h3.6z" fill="url(#mXnq_MmSJa)"/>
  <path d="M4.35 25c0-7.954 6.446-14.4 14.4-14.4 7.954 0 14.4 6.446 14.4 14.4h3.6c0-9.941-8.059-18-18-18s-18 8.059-18 18h3.6z" fill="url(#mXnq_MmSJb)" fill-opacity=".6"/>
  <path d="M27.75 25a9 9 0 10-18 0h-3.6c0-6.958 5.642-12.6 12.6-12.6 6.958 0 12.6 5.642 12.6 12.6h-3.6z" fill="url(#mXnq_MmSJc)"/>
  <path d="M27.75 25a9 9 0 10-18 0h-3.6c0-6.958 5.642-12.6 12.6-12.6 6.958 0 12.6 5.642 12.6 12.6h-3.6z" fill="url(#mXnq_MmSJd)" fill-opacity=".6"/>
  <path d="M15.15 25a3.6 3.6 0 017.2 0h3.6a7.2 7.2 0 00-7.2-7.2 7.2 7.2 0 00-7.2 7.2h3.6z" fill="url(#mXnq_MmSJe)"/>
  <path d="M15.15 25a3.6 3.6 0 017.2 0h3.6a7.2 7.2 0 00-7.2-7.2 7.2 7.2 0 00-7.2 7.2h3.6z" fill="url(#mXnq_MmSJf)" fill-opacity=".6"/>
  <path d="M51.925 10.428c-.79-.415-1.786-.621-2.987-.621H43.5V24.75h2.73v-5.175h2.659c1.214 0 2.222-.205 3.022-.612.801-.407 1.397-.979 1.794-1.715.394-.734.592-1.58.592-2.537 0-.956-.198-1.82-.592-2.557-.395-.734-.987-1.31-1.779-1.724l-.002-.002zm-.608 5.656a2.01 2.01 0 01-.906.912c-.411.214-.953.322-1.624.322h-2.56v-5.185h2.55c.67 0 1.212.106 1.627.316.415.21.718.51.911.898.192.388.29.842.29 1.364 0 .523-.096.98-.29 1.375l.002-.002zm6.81-6.279h-2.6v14.943h2.6V9.805zm9.355 5.13a4.096 4.096 0 00-1.389-.737c-.545-.174-1.158-.26-1.842-.26-.944 0-1.748.156-2.415.47-.667.315-1.186.737-1.558 1.269a3.401 3.401 0 00-.617 1.78h2.5a1.46 1.46 0 01.304-.782c.175-.228.414-.404.713-.527a2.73 2.73 0 011.045-.185c.398 0 .727.064 1.005.191.279.127.493.301.643.52.15.22.224.481.224.782v.07c0 .24-.08.419-.244.532-.164.114-.435.197-.816.25a61.67 61.67 0 01-1.549.191c-.545.053-1.064.144-1.558.271a4.883 4.883 0 00-1.32.541c-.385.235-.69.55-.915.943-.226.394-.338.894-.338 1.494 0 .702.158 1.289.473 1.76a2.88 2.88 0 001.295 1.059c.55.234 1.171.35 1.867.35.564 0 1.043-.072 1.44-.216.394-.144.727-.343.996-.596.269-.254.487-.538.652-.852h.049v1.493h2.549v-7.28a3.23 3.23 0 00-.309-1.414 3.33 3.33 0 00-.881-1.119l-.004.002zm-1.368 5.902c0 .41-.096.776-.29 1.104a2.072 2.072 0 01-.836.782c-.365.195-.81.291-1.335.291-.524 0-.966-.115-1.283-.346-.32-.231-.478-.55-.478-.958 0-.314.09-.57.269-.767a1.89 1.89 0 01.707-.471c.291-.117.614-.199.966-.246.26-.034.505-.072.742-.116.235-.043.457-.087.662-.13a8.07 8.07 0 00.532-.13 1.58 1.58 0 00.344-.137v1.124zm9.885-2.147l-1.912-.391c-.425-.093-.76-.237-1-.432a.928.928 0 01-.363-.763c0-.34.156-.634.468-.878.312-.244.737-.365 1.275-.365.537 0 1.011.151 1.359.456.348.305.526.687.532 1.149h2.449c-.026-.729-.226-1.356-.598-1.88-.372-.524-.883-.933-1.534-1.223-.65-.291-1.407-.435-2.27-.435s-1.626.136-2.27.41c-.645.275-1.144.658-1.495 1.15-.352.492-.528 1.065-.528 1.72 0 .803.261 1.462.787 1.977.525.515 1.288.88 2.291 1.092l1.803.361c.446.088.793.228 1.045.423a.908.908 0 01.378.751c0 .362-.17.659-.507.894-.339.234-.807.35-1.405.35-.597 0-1.094-.14-1.449-.422-.355-.28-.56-.672-.613-1.174h-2.569c.06.763.295 1.407.707 1.93.411.525.958.925 1.642 1.2.685.274 1.461.41 2.331.41.87 0 1.654-.138 2.335-.416.68-.277 1.21-.672 1.594-1.184.381-.51.573-1.11.573-1.8 0-.776-.248-1.4-.743-1.876-.494-.475-1.266-.82-2.315-1.033h.002zm18.117-4.315c-.528-.292-1.127-.436-1.797-.436-.802 0-1.503.197-2.101.593-.598.393-1.002.882-1.214 1.463h-.04c-.178-.594-.541-1.087-1.084-1.475-.545-.388-1.192-.58-1.942-.58s-1.38.19-1.947.57c-.568.381-.96.873-1.18 1.476h-.04V14.16h-2.519v10.591h2.61v-6.307c0-.489.093-.905.283-1.25.19-.344.438-.604.746-.778a2.04 2.04 0 011.02-.261c.552 0 1 .17 1.35.511.348.34.523.803.523 1.384v6.7h2.53v-6.479c0-.62.179-1.13.538-1.524.358-.393.85-.592 1.473-.592a2 2 0 011.35.486c.374.324.562.828.562 1.51v6.598h2.609v-6.99c0-.83-.156-1.528-.468-2.096a3.177 3.177 0 00-1.26-1.29h-.002zm4.744-4.75c-.432 0-.798.144-1.1.432a1.395 1.395 0 00-.452 1.052c0 .415.15.744.453 1.028.303.284.67.426 1.1.426.43 0 .798-.142 1.1-.426.302-.284.452-.627.452-1.028s-.15-.765-.453-1.052a1.538 1.538 0 00-1.1-.432zm1.305 4.534h-2.6V24.75h2.6V14.16zm7.939 8.143c-.362.349-.864.521-1.509.521-.532 0-.989-.138-1.374-.416-.385-.277-.68-.667-.887-1.168-.207-.502-.308-1.093-.308-1.776s.103-1.285.308-1.79c.205-.506.502-.896.887-1.174.385-.277.842-.417 1.374-.417.425 0 .793.08 1.105.24.312.161.562.385.752.672.19.288.314.62.374.992h2.549c-.073-.795-.321-1.499-.746-2.11a4.401 4.401 0 00-1.679-1.439c-.693-.348-1.488-.52-2.385-.52-1.03 0-1.932.236-2.708.707a4.871 4.871 0 00-1.818 1.956c-.434.833-.652 1.795-.652 2.883s.218 2.04.652 2.873a4.83 4.83 0 001.818 1.95c.776.468 1.678.703 2.708.703.897 0 1.695-.178 2.4-.532a4.45 4.45 0 001.694-1.454 4.103 4.103 0 00.716-2.096h-2.569c-.108.581-.341 1.047-.703 1.394l.001.002z" fill="#00030C"/>
  <path d="M108.104 22.302c-.362.349-.864.521-1.509.521-.532 0-.989-.138-1.374-.416-.385-.277-.68-.667-.887-1.168-.207-.502-.308-1.093-.308-1.776s.103-1.285.308-1.79c.205-.506.502-.896.887-1.174.385-.277.842-.417 1.374-.417.425 0 .793.08 1.105.24.312.161.562.385.752.672.19.288.314.62.374.992h2.549c-.073-.795-.321-1.499-.746-2.11a4.401 4.401 0 00-1.679-1.439c-.693-.348-1.488-.52-2.385-.52-1.03 0-1.932.236-2.708.707a4.871 4.871 0 00-1.818 1.956c-.434.833-.652 1.795-.652 2.883s.218 2.04.652 2.873a4.83 4.83 0 001.818 1.95c.776.468 1.678.703 2.708.703.897 0 1.695-.178 2.4-.532a4.45 4.45 0 001.694-1.454 4.103 4.103 0 00.716-2.096h-2.569c-.108.581-.341 1.047-.703 1.394l.001.002z" fill="#00030C"/>
  <path d="M108.104 22.302c-.362.349-.864.521-1.509.521-.532 0-.989-.138-1.374-.416-.385-.277-.68-.667-.887-1.168-.207-.502-.308-1.093-.308-1.776s.103-1.285.308-1.79c.205-.506.502-.896.887-1.174.385-.277.842-.417 1.374-.417.425 0 .793.08 1.105.24.312.161.562.385.752.672.19.288.314.62.374.992h2.549c-.073-.795-.321-1.499-.746-2.11a4.401 4.401 0 00-1.679-1.439c-.693-.348-1.488-.52-2.385-.52-1.03 0-1.932.236-2.708.707a4.871 4.871 0 00-1.818 1.956c-.434.833-.652 1.795-.652 2.883s.218 2.04.652 2.873a4.83 4.83 0 001.818 1.95c.776.468 1.678.703 2.708.703.897 0 1.695-.178 2.4-.532a4.45 4.45 0 001.694-1.454 4.103 4.103 0 00.716-2.096h-2.569c-.108.581-.341 1.047-.703 1.394l.001.002z" fill="#00030C"/>
  <path d="M108.104 22.302c-.362.349-.864.521-1.509.521-.532 0-.989-.138-1.374-.416-.385-.277-.68-.667-.887-1.168-.207-.502-.308-1.093-.308-1.776s.103-1.285.308-1.79c.205-.506.502-.896.887-1.174.385-.277.842-.417 1.374-.417.425 0 .793.08 1.105.24.312.161.562.385.752.672.19.288.314.62.374.992h2.549c-.073-.795-.321-1.499-.746-2.11a4.401 4.401 0 00-1.679-1.439c-.693-.348-1.488-.52-2.385-.52-1.03 0-1.932.236-2.708.707a4.871 4.871 0 00-1.818 1.956c-.434.833-.652 1.795-.652 2.883s.218 2.04.652 2.873a4.83 4.83 0 001.818 1.95c.776.468 1.678.703 2.708.703.897 0 1.695-.178 2.4-.532a4.45 4.45 0 001.694-1.454 4.103 4.103 0 00.716-2.096h-2.569c-.108.581-.341 1.047-.703 1.394l.001.002z" fill="#00030C"/>
  <defs>
    <linearGradient id="mXnq_MmSJa" x1=".75" y1="25" x2="36.75" y2="25" gradientUnits="userSpaceOnUse">
      <stop offset=".219" stop-color="#FF2991"/>
      <stop offset=".792" stop-color="#9429FF"/>
    </linearGradient>
    <linearGradient id="mXnq_MmSJb" x1="18.75" y1="34.009" x2="18.75" y2="10.75" gradientUnits="userSpaceOnUse">
      <stop stop-color="#fff"/>
      <stop offset=".22" stop-color="#fff" stop-opacity=".76"/>
      <stop offset=".6" stop-color="#fff" stop-opacity=".36"/>
      <stop offset=".87" stop-color="#fff" stop-opacity=".1"/>
      <stop offset="1" stop-color="#fff" stop-opacity="0"/>
    </linearGradient>
    <linearGradient id="mXnq_MmSJc" x1=".75" y1="25" x2="36.75" y2="25" gradientUnits="userSpaceOnUse">
      <stop offset=".219" stop-color="#FF2991"/>
      <stop offset=".792" stop-color="#9429FF"/>
    </linearGradient>
    <linearGradient id="mXnq_MmSJd" x1="18.75" y1="34.009" x2="18.75" y2="10.75" gradientUnits="userSpaceOnUse">
      <stop stop-color="#fff"/>
      <stop offset=".22" stop-color="#fff" stop-opacity=".76"/>
      <stop offset=".6" stop-color="#fff" stop-opacity=".36"/>
      <stop offset=".87" stop-color="#fff" stop-opacity=".1"/>
      <stop offset="1" stop-color="#fff" stop-opacity="0"/>
    </linearGradient>
    <linearGradient id="mXnq_MmSJe" x1=".75" y1="25" x2="36.75" y2="25" gradientUnits="userSpaceOnUse">
      <stop offset=".219" stop-color="#FF2991"/>
      <stop offset=".792" stop-color="#9429FF"/>
    </linearGradient>
    <linearGradient id="mXnq_MmSJf" x1="18.75" y1="34.009" x2="18.75" y2="10.75" gradientUnits="userSpaceOnUse">
      <stop stop-color="#fff"/>
      <stop offset=".22" stop-color="#fff" stop-opacity=".76"/>
      <stop offset=".6" stop-color="#fff" stop-opacity=".36"/>
      <stop offset=".87" stop-color="#fff" stop-opacity=".1"/>
      <stop offset="1" stop-color="#fff" stop-opacity="0"/>
    </linearGradient>
  </defs>
</svg>
